<?xml version="1.0" encoding="UTF-8"?>
<svg fill="none" viewBox="0 0 16 16" xmlns="http://www.w3.org/2000/svg">
<path d="m8 15.11c-0.22778 0-0.44738-0.0826-0.61852-0.2325-0.64637-0.5651-1.2695-1.0963-1.8193-1.5648l-0.0028-0.0024c-1.6119-1.3737-3.0039-2.56-3.9724-3.7285-1.0826-1.3064-1.5869-2.545-1.5869-3.8982 0-1.3147 0.4508-2.5276 1.2693-3.4154 0.82825-0.89832 1.9647-1.3931 3.2004-1.3931 0.92358 0 1.7694 0.29199 2.5139 0.8678 0.37573 0.29065 0.71631 0.64636 1.0164 1.0613 0.30017-0.41492 0.64063-0.77063 1.0165-1.0613 0.74451-0.57581 1.5903-0.8678 2.5139-0.8678 1.2356 0 2.3722 0.49475 3.2004 1.3931 0.8185 0.88781 1.2692 2.1007 1.2692 3.4154 0 1.3532-0.5042 2.5918-1.5868 3.8981-0.9685 1.1687-2.3604 2.3549-3.9721 3.7284-0.55074 0.4693-1.1749 1.0013-1.8227 1.5678-0.17102 0.1496-0.39074 0.2322-0.61841 0.2322zm-3.5303-13.298c-0.97083 0-1.8627 0.38745-2.5115 1.0911-0.65845 0.71423-1.0211 1.7015-1.0211 2.7802 0 1.1381 0.42297 2.1559 1.3713 3.3002 0.91662 1.1061 2.28 2.268 3.8586 3.6133l0.00293 0.0025c0.55188 0.4703 1.1775 1.0035 1.8286 1.5728 0.65503-0.5704 1.2816-1.1045 1.8346-1.5755 1.5785-1.3454 2.9418-2.507 3.8584-3.6131 0.9483-1.1443 1.3712-2.1621 1.3712-3.3002 0-1.0786-0.3626-2.0659-1.0211-2.7802-0.6487-0.70361-1.5406-1.0911-2.5113-1.0911-0.7112 0-1.3642 0.22607-1.9407 0.67187-0.51379 0.39746-0.8717 0.8999-1.0815 1.2515-0.10791 0.18078-0.29785 0.28869-0.50818 0.28869-0.21032 0-0.40026-0.10791-0.50817-0.28869-0.20972-0.35157-0.56763-0.85401-1.0815-1.2515-0.57654-0.4458-1.2295-0.67187-1.9406-0.67187z" fill="#000" fill-opacity=".75"/>
</svg>
